REM DIRINDEX 1\6,1\2\7,1\2\8,1\2\9,1\3\10,1\3\11,1\4\12,1\4\13,1\4\14,1\5\15,1\5\16,1\5\17
REM DIRNAME cjc041,folder01,folder02,folder03,folder04,folder05,folder06,folder07,folder08,folder09,folder10,folder11,folder12,folder13,folder14,folder15,folder16
TITLE ""
FILE "3Q_t2_0126-0141.mp3" MP3
  TRACK 01 AUDIO
    TITLE "7:cjc041_3790"
    INDEX 01 00:00:00
  TRACK 02 AUDIO
    TITLE "0:"
    INDEX 01 00:01:09
  TRACK 03 AUDIO
    TITLE "8:cjc041_3791"
    INDEX 01 00:01:68
  TRACK 04 AUDIO
    TITLE "0:"
    INDEX 01 00:05:30
  TRACK 05 AUDIO
    TITLE "9:cjc041_3792"
    INDEX 01 00:06:06
  TRACK 06 AUDIO
    TITLE "0:"
    INDEX 01 00:07:27
  TRACK 07 AUDIO
    TITLE "7:cjc041_3793"
    INDEX 01 00:09:08
  TRACK 08 AUDIO
    TITLE "0:"
    INDEX 01 00:10:10
  TRACK 09 AUDIO
    TITLE "8:cjc041_3794"
    INDEX 01 00:10:63
  TRACK 10 AUDIO
    TITLE "0:"
    INDEX 01 00:11:60
  TRACK 11 AUDIO
    TITLE "9:cjc041_3795"
    INDEX 01 00:12:38
  TRACK 12 AUDIO
    TITLE "0:"
    INDEX 01 00:13:43
  TRACK 13 AUDIO
    TITLE "7:cjc041_3796"
    INDEX 01 00:15:25
  TRACK 14 AUDIO
    TITLE "0:"
    INDEX 01 00:16:30
  TRACK 15 AUDIO
    TITLE "8:cjc041_3797"
    INDEX 01 00:17:08
  TRACK 16 AUDIO
    TITLE "0:"
    INDEX 01 00:18:09
  TRACK 17 AUDIO
    TITLE "9:cjc041_3798"
    INDEX 01 00:18:62
  TRACK 18 AUDIO
    TITLE "0:"
    INDEX 01 00:19:69
  TRACK 19 AUDIO
    TITLE "7:cjc041_3799"
    INDEX 01 00:21:51
  TRACK 20 AUDIO
    TITLE "0:"
    INDEX 01 00:22:54
  TRACK 21 AUDIO
    TITLE "8:cjc041_3800"
    INDEX 01 00:23:36
  TRACK 22 AUDIO
    TITLE "0:"
    INDEX 01 00:25:37
  TRACK 23 AUDIO
    TITLE "9:cjc041_3801"
    INDEX 01 00:26:09
  TRACK 24 AUDIO
    TITLE "0:"
    INDEX 01 00:27:16
  TRACK 25 AUDIO
    TITLE "7:cjc041_3802"
    INDEX 01 00:28:74
  TRACK 26 AUDIO
    TITLE "0:"
    INDEX 01 00:30:16
  TRACK 27 AUDIO
    TITLE "8:cjc041_3803"
    INDEX 01 00:30:61
  TRACK 28 AUDIO
    TITLE "0:"
    INDEX 01 00:32:07
  TRACK 29 AUDIO
    TITLE "9:cjc041_3804"
    INDEX 01 00:32:58
  TRACK 30 AUDIO
    TITLE "0:"
    INDEX 01 00:34:00
  TRACK 31 AUDIO
    TITLE "7:cjc041_3805"
    INDEX 01 00:35:49
  TRACK 32 AUDIO
    TITLE "0:"
    INDEX 01 00:36:70
  TRACK 33 AUDIO
    TITLE "8:cjc041_3806"
    INDEX 01 00:37:50
  TRACK 34 AUDIO
    TITLE "0:"
    INDEX 01 00:38:55
  TRACK 35 AUDIO
    TITLE "9:cjc041_3807"
    INDEX 01 00:39:37
  TRACK 36 AUDIO
    TITLE "0:"
    INDEX 01 00:40:58
  TRACK 37 AUDIO
    TITLE "7:cjc041_3808"
    INDEX 01 00:42:39
  TRACK 38 AUDIO
    TITLE "0:"
    INDEX 01 00:43:46
  TRACK 39 AUDIO
    TITLE "8:cjc041_3809"
    INDEX 01 00:44:20
  TRACK 40 AUDIO
    TITLE "0:"
    INDEX 01 00:45:22
  TRACK 41 AUDIO
    TITLE "9:cjc041_3810"
    INDEX 01 00:45:71
  TRACK 42 AUDIO
    TITLE "0:"
    INDEX 01 00:47:03
  TRACK 43 AUDIO
    TITLE "7:cjc041_3811"
    INDEX 01 00:48:55
  TRACK 44 AUDIO
    TITLE "0:"
    INDEX 01 00:49:61
  TRACK 45 AUDIO
    TITLE "8:cjc041_3812"
    INDEX 01 00:50:39
  TRACK 46 AUDIO
    TITLE "0:"
    INDEX 01 00:51:28
  TRACK 47 AUDIO
    TITLE "9:cjc041_3813"
    INDEX 01 00:52:06
  TRACK 48 AUDIO
    TITLE "0:"
    INDEX 01 00:53:11
  TRACK 49 AUDIO
    TITLE "7:cjc041_3814"
    INDEX 01 00:54:64
  TRACK 50 AUDIO
    TITLE "0:"
    INDEX 01 00:56:10
  TRACK 51 AUDIO
    TITLE "8:cjc041_3815"
    INDEX 01 00:56:65
  TRACK 52 AUDIO
    TITLE "0:"
    INDEX 01 00:57:58
  TRACK 53 AUDIO
    TITLE "9:cjc041_3816"
    INDEX 01 00:58:38
  TRACK 54 AUDIO
    TITLE "0:"
    INDEX 01 00:59:61
  TRACK 55 AUDIO
    TITLE "7:cjc041_3817"
    INDEX 01 01:01:38
  TRACK 56 AUDIO
    TITLE "0:"
    INDEX 01 01:02:55
  TRACK 57 AUDIO
    TITLE "8:cjc041_3818"
    INDEX 01 01:03:31
  TRACK 58 AUDIO
    TITLE "0:"
    INDEX 01 01:06:06
  TRACK 59 AUDIO
    TITLE "9:cjc041_3819"
    INDEX 01 01:06:57
  TRACK 60 AUDIO
    TITLE "0:"
    INDEX 01 01:08:01
  TRACK 61 AUDIO
    TITLE "7:cjc041_3820"
    INDEX 01 01:09:56
  TRACK 62 AUDIO
    TITLE "0:"
    INDEX 01 01:10:69
  TRACK 63 AUDIO
    TITLE "8:cjc041_3821"
    INDEX 01 01:11:51
  TRACK 64 AUDIO
    TITLE "0:"
    INDEX 01 01:12:46
  TRACK 65 AUDIO
    TITLE "9:cjc041_3822"
    INDEX 01 01:13:24
  TRACK 66 AUDIO
    TITLE "0:"
    INDEX 01 01:14:39
  TRACK 67 AUDIO
    TITLE "7:cjc041_3823"
    INDEX 01 01:16:20
  TRACK 68 AUDIO
    TITLE "0:"
    INDEX 01 01:17:33
  TRACK 69 AUDIO
    TITLE "8:cjc041_3824"
    INDEX 01 01:18:15
  TRACK 70 AUDIO
    TITLE "0:"
    INDEX 01 01:19:36
  TRACK 71 AUDIO
    TITLE "9:cjc041_3825"
    INDEX 01 01:20:16
  TRACK 72 AUDIO
    TITLE "0:"
    INDEX 01 01:21:31
  TRACK 73 AUDIO
    TITLE "7:cjc041_3826"
    INDEX 01 01:23:13
  TRACK 74 AUDIO
    TITLE "0:"
    INDEX 01 01:24:16
  TRACK 75 AUDIO
    TITLE "8:cjc041_3827"
    INDEX 01 01:25:00
  TRACK 76 AUDIO
    TITLE "0:"
    INDEX 01 01:27:28
  TRACK 77 AUDIO
    TITLE "9:cjc041_3828"
    INDEX 01 01:28:02
  TRACK 78 AUDIO
    TITLE "0:"
    INDEX 01 01:29:09
  TRACK 79 AUDIO
    TITLE "7:cjc041_3829"
    INDEX 01 01:30:62
  TRACK 80 AUDIO
    TITLE "0:"
    INDEX 01 01:32:00
  TRACK 81 AUDIO
    TITLE "8:cjc041_3830"
    INDEX 01 01:32:60
  TRACK 82 AUDIO
    TITLE "0:"
    INDEX 01 01:34:12
  TRACK 83 AUDIO
    TITLE "9:cjc041_3831"
    INDEX 01 01:34:61
  TRACK 84 AUDIO
    TITLE "0:"
    INDEX 01 01:36:05
  TRACK 85 AUDIO
    TITLE "7:cjc041_3832"
    INDEX 01 01:37:62
  TRACK 86 AUDIO
    TITLE "0:"
    INDEX 01 01:38:73
  TRACK 87 AUDIO
    TITLE "8:cjc041_3833"
    INDEX 01 01:39:51
  TRACK 88 AUDIO
    TITLE "0:"
    INDEX 01 01:40:58
  TRACK 89 AUDIO
    TITLE "9:cjc041_3834"
    INDEX 01 01:41:30
  TRACK 90 AUDIO
    TITLE "0:"
    INDEX 01 01:42:41
  TRACK 91 AUDIO
    TITLE "7:cjc041_3835"
    INDEX 01 01:44:17
  TRACK 92 AUDIO
    TITLE "0:"
    INDEX 01 01:45:49
  TRACK 93 AUDIO
    TITLE "8:cjc041_3836"
    INDEX 01 01:46:29
  TRACK 94 AUDIO
    TITLE "0:"
    INDEX 01 01:47:42
  TRACK 95 AUDIO
    TITLE "9:cjc041_3837"
    INDEX 01 01:48:12
  TRACK 96 AUDIO
    TITLE "0:"
    INDEX 01 01:49:45
